#!OML:ASF X:\für Bonn\!DataBase\2005_08_10_Bjorn_Final\c3d\bjorn.ASF
:FULLY-SPECIFIED
:DEGREES
198
root 0.296678 5.28097 19.7261 -229.463 8.55768 -549.142
lowerback 48.3992 -17.584 0.232653
upperback 25.9629 -7.8586 -0.973342
thorax 8.86914 2.08617 2.00656
lowerneck 3.19292 -10.3843 13.8263
upperneck 27.3234 -11.2001 -2.57848
head 7.00537 -3.19982 -3.43721
rclavicle 6.99722e-014 -2.8625e-014
rhumerus -38.3963 -30.9903 -54.9933
rradius 33.7323
rwrist -10.2861
rhand -17.6739 2.58298
rfingers 7.12502
rthumb 8.585 -27.2225
lclavicle 6.99722e-014 -2.8625e-014
lhumerus -37.1563 -5.89045 94.3641
lradius 25.4776
lwrist -22.3815
lhand -13.5387 -361.104
lfingers 7.12502
lthumb 12.5739 28.498
rfemur 47.7989 -68.6183 -151.654
rtibia 152.805
rfoot -65.9737 51.714
rtoes -12.6837
lfemur -1.24326 56.9417 95.6253
ltibia 152.731
lfoot -47.3268 -32.3501
ltoes -41.1127
199
root 0.341118 5.23308 19.7645 -230.042 7.97941 -549.002
lowerback 48.284 -17.2923 -0.0841313
upperback 25.9703 -7.64372 -1.13269
thorax 8.89539 2.1984 1.91362
lowerneck 2.91958 -10.3134 14.0912
upperneck 27.6133 -11.07 -2.88893
head 7.11946 -3.09934 -3.59662
rclavicle 2.22639e-014 -9.85972e-014
rhumerus -39.4893 -31.4919 -54.8936
rradius 33.4758
rwrist -10.1815
rhand -17.5877 2.56744
rfingers 7.12502
rthumb 8.66825 -27.2346
lclavicle 2.22639e-014 -9.85972e-014
lhumerus -37.683 -5.71883 95.3852
lradius 24.8384
lwrist -24.0382
lhand -12.7537 -362.111
lfingers 7.12502
lthumb 13.3306 27.4422
rfemur 47.3268 -67.8555 -151.491
rtibia 152.985
rfoot -66.1945 51.3
rtoes -12.6633
lfemur -1.89877 56.9705 94.685
ltibia 152.607
lfoot -47.2778 -32.1096
ltoes -40.6661
200
root 0.385578 5.18874 19.8036 -230.579 7.39492 -548.878
lowerback 48.1212 -16.9609 -0.453562
upperback 26.0031 -7.39493 -1.24142
thorax 8.97262 2.31459 1.89111
lowerneck 2.58678 -10.2209 14.3288
upperneck 27.8848 -10.9222 -3.24222
head 7.2371 -3.00157 -3.76893
rclavicle -4.13472e-014 -7.31528e-014
rhumerus -40.5154 -32.0171 -54.7407
rradius 33.2042
rwrist -10.1437
rhand -17.5241 2.59273
rfingers 7.12502
rthumb 8.72959 -27.2068
lclavicle -4.13472e-014 -7.31528e-014
lhumerus -38.1708 -5.50128 96.3513
lradius 24.2884
lwrist -25.3786
lhand -12.1516 -362.97
lfingers 7.12502
lthumb 13.9109 26.5444
rfemur 46.8325 -67.2006 -151.278
rtibia 153.144
rfoot -66.2935 50.9573
rtoes -12.7113
lfemur -2.49663 57.0414 93.7038
ltibia 152.453
lfoot -47.2969 -31.7549
ltoes -40.2885
201
root 0.430011 5.14699 19.8438 -231.096 6.83145 -548.725
lowerback 47.9374 -16.6371 -0.758844
upperback 26.0513 -7.11485 -1.34709
thorax 9.06595 2.45874 1.838
lowerneck 2.22987 -10.1023 14.5508
upperneck 28.1175 -10.7644 -3.51161
head 7.35556 -2.89756 -3.91228
rclavicle 1.27222e-014 -1.52667e-013
rhumerus -41.5917 -32.6381 -54.5558
rradius 32.9566
rwrist -10.1161
rhand -17.4207 2.63911
rfingers 7.12502
rthumb 8.82943 -27.1562
lclavicle 1.27222e-014 -1.52667e-013
lhumerus -38.6434 -5.19806 97.1118
lradius 23.7839
lwrist -26.3657
lhand -11.7468 -363.484
lfingers 7.12502
lthumb 14.301 26.004
rfemur 46.3939 -66.5654 -151.012
rtibia 153.286
rfoot -66.3989 50.4801
rtoes -12.8954
lfemur -3.18214 57.1199 92.6301
ltibia 152.286
lfoot -47.2948 -31.3569
ltoes -39.9585
202
root 0.473829 5.10928 19.885 -231.602 6.2774 -548.568
lowerback 47.7403 -16.3061 -1.00219
upperback 26.1065 -6.78709 -1.44972
thorax 9.16452 2.63862 1.75014
lowerneck 1.79605 -9.9859 14.7307
upperneck 28.4056 -10.6372 -3.68358
head 7.51451 -2.79806 -4.02411
rclavicle -4.29375e-014 -8.90555e-014
rhumerus -42.7309 -33.368 -54.3252
rradius 32.693
rwrist -10.0731
rhand -17.3123 2.72837
rfingers 7.12502
rthumb 8.93396 -27.0625
lclavicle -4.29375e-014 -8.90555e-014
lhumerus -39.0147 -4.56019 97.4837
lradius 23.2135
lwrist -27.0156
lhand -11.4365 -363.823
lfingers 7.12502
lthumb 14.5999 25.6433
rfemur 45.8501 -66.0252 -150.603
rtibia 153.405
rfoot -66.2744 50.201
rtoes -12.6699
lfemur -3.80845 57.1991 91.5807
ltibia 152.095
lfoot -47.2447 -31.045
ltoes -39.5028
203
root 0.516592 5.07304 19.9263 -232.089 5.74811 -548.381
lowerback 47.5202 -15.9836 -1.11479
upperback 26.1529 -6.41247 -1.5537
thorax 9.24338 2.86036 1.59046
lowerneck 1.36088 -9.88794 14.9081
upperneck 28.6702 -10.5596 -3.72099
head 7.67438 -2.70947 -4.09145
rclavicle -2.22639e-014 -9.54166e-015
rhumerus -44.0181 -34.1745 -54.0296
rradius 32.4507
rwrist -10.0725
rhand -17.1603 2.87516
rfingers 7.12502
rthumb 9.08068 -26.9094
lclavicle -2.22639e-014 -9.54166e-015
lhumerus -39.3804 -3.97812 97.6928
lradius 22.6972
lwrist -27.0278
lhand -11.2149 -363.836
lfingers 7.12502
lthumb 14.8134 25.6149
rfemur 45.3898 -65.4795 -150.18
rtibia 153.506
rfoot -66.2883 49.7328
rtoes -12.8549
lfemur -4.49781 57.2874 90.5216
ltibia 151.901
lfoot -47.198 -30.7708
ltoes -39.0851
204
root 0.559351 5.03967 19.969 -232.555 5.22689 -548.192
lowerback 47.3286 -15.647 -1.16877
upperback 26.1629 -5.99975 -1.6331
thorax 9.2732 3.10267 1.41894
lowerneck 1.10762 -9.82821 15.0943
upperneck 28.7683 -10.512 -3.70754
head 7.74826 -2.64119 -4.12831
rclavicle -6.36111e-015 6.36111e-015
rhumerus -45.4203 -35.0173 -53.6391
rradius 32.2284
rwrist -10.0332
rhand -16.9416 2.95485
rfingers 7.12502
rthumb 9.29169 -26.8204
lclavicle -6.36111e-015 6.36111e-015
lhumerus -39.7507 -3.23308 97.6948
lradius 22.2417
lwrist -26.5963
lhand -11.2682 -363.663
lfingers 7.12502
lthumb 14.7621 25.7913
rfemur 44.9247 -65.0071 -149.695
rtibia 153.579
rfoot -66.1266 49.4277
rtoes -12.6993
lfemur -5.27974 57.3992 89.3288
ltibia 151.69
lfoot -47.1141 -30.471
ltoes -38.6694
205
root 0.601744 5.0097 20.0133 -232.995 4.71116 -547.989
lowerback 46.0189 -15.2832 -1.165
upperback 27.065 -5.55714 -1.78821
thorax 9.53637 3.36082 1.27155
lowerneck 0.924821 -9.78066 15.2554
upperneck 28.7349 -10.4843 -3.6626
head 7.76702 -2.59472 -4.14321
rclavicle -6.83819e-014 -8.5875e-014
rhumerus -46.7968 -35.7394 -53.2864
rradius 32.0386
rwrist -10.1913
rhand -16.7493 2.93128
rfingers 7.12502
rthumb 9.47722 -26.8356
lclavicle -6.83819e-014 -8.5875e-014
lhumerus -40.031 -2.32219 97.5016
lradius 21.7751
lwrist -25.8192
lhand -11.699 -363.479
lfingers 7.12502
lthumb 14.3471 26.0055
rfemur 44.4522 -64.5971 -149.154
rtibia 153.639
rfoot -65.8284 49.2411
rtoes -12.386
lfemur -6.20002 57.5325 87.9415
ltibia 151.456
lfoot -46.973 -30.1329
ltoes -38.3763
206
root 0.642893 4.98162 20.0568 -233.418 4.18505 -547.794
lowerback 45.8418 -14.9376 -1.23624
upperback 27.0748 -5.11577 -1.79439
thorax 9.59241 3.61174 1.17725
lowerneck 0.751739 -9.69865 15.3406
upperneck 28.635 -10.4144 -3.63045
head 7.76719 -2.54682 -4.14753
rclavicle 2.22639e-014 4.13472e-014
rhumerus -48.0537 -36.2822 -52.9983
rradius 31.8703
rwrist -10.5352
rhand -16.5648 2.89954
rfingers 7.12502
rthumb 9.65527 -26.8592
lclavicle 2.22639e-014 4.13472e-014
lhumerus -40.2026 -1.2236 97.1738
lradius 21.26
lwrist -24.6704
lhand -12.43 -363.276
lfingers 7.12502
lthumb 13.6426 26.257
rfemur 44.0071 -64.2533 -148.614
rtibia 153.681
rfoot -65.5516 48.9166
rtoes -12.3152
lfemur -7.08216 57.6718 86.5914
ltibia 151.23
lfoot -46.8741 -29.8121
ltoes -38.1191
207
root 0.682933 4.95494 20.1015 -233.825 3.65694 -547.594
lowerback 45.7071 -14.5973 -1.33455
upperback 27.0608 -4.69465 -1.77739
thorax 9.61607 3.8423 1.12612
lowerneck 0.56082 -9.59801 15.3326
upperneck 28.5941 -10.3091 -3.62507
head 7.79542 -2.48934 -4.14863
rclavicle -2.54444e-014 -4.45278e-014
rhumerus -49.2201 -36.689 -52.7526
rradius 31.6949
rwrist -10.963
rhand -16.3764 2.81088
rfingers 7.12502
rthumb 9.83701 -26.9393
lclavicle -2.54444e-014 -4.45278e-014
lhumerus -40.3434 -0.015381 96.7278
lradius 20.7071
lwrist -23.1474
lhand -13.3783 -363.2
lfingers 7.12502
lthumb 12.7285 26.3917
rfemur 43.5368 -63.9646 -148.03
rtibia 153.698
rfoot -65.1248 48.8009
rtoes -11.9894
lfemur -8.26634 57.7973 84.9255
ltibia 150.978
lfoot -46.5663 -29.7643
ltoes -37.6615
208
root 0.722111 4.93096 20.1468 -234.216 3.1427 -547.39
lowerback 45.5806 -14.2621 -1.43958
upperback 27.0493 -4.27672 -1.73736
thorax 9.64425 4.06809 1.10566
lowerneck 0.285203 -9.49612 15.2026
upperneck 28.6461 -10.2092 -3.62301
head 7.87424 -2.44035 -4.13972
rclavicle -2.8625e-014 -1.17681e-013
rhumerus -50.2665 -36.95 -52.6037
rradius 31.5117
rwrist -11.4841
rhand -16.312 2.73065
rfingers 7.12502
rthumb 9.89912 -27.0166
lclavicle -2.8625e-014 -1.17681e-013
lhumerus -40.4266 1.42858 96.0865
lradius 20.1103
lwrist -21.8174
lhand -14.4678 -362.755
lfingers 7.12502
lthumb 11.678 26.8995
rfemur 43.0568 -63.7346 -147.385
rtibia 153.708
rfoot -64.6811 48.6284
rtoes -11.8438
lfemur -9.56982 57.896 83.1538
ltibia 150.683
lfoot -46.0453 -30.0534
ltoes -36.8564
209
root 0.761072 4.90772 20.1925 -234.589 2.61315 -547.173
lowerback 45.4792 -13.9338 -1.56519
upperback 27.013 -3.88421 -1.67998
thorax 9.6395 4.271 1.11924
lowerneck 0.0892683 -9.39134 14.9945
upperneck 28.7236 -10.0744 -3.61141
head 7.95533 -2.37719 -4.11093
rclavicle 2.06736e-014 -1.59028e-014
rhumerus -51.2804 -37.1861 -52.4466
rradius 31.3172
rwrist -11.8885
rhand -16.2444 2.56856
rfingers 7.12502
rthumb 9.9644 -27.1756
lclavicle 2.06736e-014 -1.59028e-014
lhumerus -40.4492 3.47026 94.9627
lradius 19.4087
lwrist -21.2277
lhand -15.2155 -362.116
lfingers 7.12502
lthumb 10.9569 27.578
rfemur 42.6039 -63.532 -146.74
rtibia 153.69
rfoot -64.1792 48.5688
rtoes -11.4027
lfemur -11.0325 57.9874 81.2217
ltibia 150.399
lfoot -45.5792 -30.2028
ltoes -36.3241
210
root 0.800083 4.88657 20.2391 -234.971 2.05845 -546.93
lowerback 45.3965 -13.6266 -1.69455
upperback 26.9815 -3.50493 -1.61048
thorax 9.63702 4.47066 1.15358
lowerneck -0.0816763 -9.30196 14.7278
upperneck 28.8313 -9.94632 -3.58398
head 8.04551 -2.31779 -4.06705
rclavicle 5.08889e-014 -6.99722e-014
rhumerus -52.2006 -37.3482 -52.3783
rradius 31.09
rwrist -12.309
rhand -16.2953 2.43638
rfingers 7.12502
rthumb 9.91524 -27.3101
lclavicle 5.08889e-014 -6.99722e-014
lhumerus -40.5148 5.56111 93.7069
lradius 18.7828
lwrist -20.3028
lhand -15.9503 -361.381
lfingers 7.12502
lthumb 10.2481 28.3496
rfemur 42.1724 -63.2631 -146.092
rtibia 153.657
rfoot -63.7342 48.4609
rtoes -11.0972
lfemur -12.7576 58.0294 79.0159
ltibia 150.113
lfoot -44.9988 -30.4128
ltoes -35.8078
211
root 0.837427 4.86931 20.2852 -235.365 1.55854 -546.702
lowerback 45.3563 -13.3105 -1.8171
upperback 26.9393 -3.11232 -1.53373
thorax 9.61042 4.676 1.18752
lowerneck -0.246641 -9.20359 14.4222
upperneck 28.9721 -9.7958 -3.54964
head 8.15029 -2.24721 -4.01418
rclavicle 4.6118e-014 -5.08889e-014
rhumerus -53.0542 -37.5109 -52.3377
rradius 30.8176
rwrist -12.6696
rhand -16.4 2.31282
rfingers 7.12502
rthumb 9.8143 -27.4385
lclavicle 4.6118e-014 -5.08889e-014
lhumerus -40.6944 7.83086 92.2699
lradius 18.26
lwrist -19.4451
lhand -16.51 -361.113
lfingers 7.12502
lthumb 9.70814 28.6437
rfemur 41.6443 -63.0819 -145.28
rtibia 153.601
rfoot -63.2137 48.4441
rtoes -10.4784
lfemur -14.3547 58.0059 76.9779
ltibia 149.827
lfoot -44.4094 -30.6605
ltoes -35.3194
212
root 0.873353 4.85468 20.3317 -235.771 1.03798 -546.489
lowerback 45.3213 -13.0207 -1.91823
upperback 26.9031 -2.73502 -1.49647
thorax 9.58487 4.88598 1.17372
lowerneck -0.393013 -9.10919 14.1753
upperneck 29.1055 -9.63662 -3.56908
head 8.24342 -2.17236 -3.98606
rclavicle 8.90555e-014 4.45278e-014
rhumerus -53.9193 -37.8099 -52.2778
rradius 30.5076
rwrist -12.8369
rhand -16.5535 2.17739
rfingers 7.12502
rthumb 9.66615 -27.5808
lclavicle 8.90555e-014 4.45278e-014
lhumerus -40.9513 9.91001 90.8013
lradius 17.8596
lwrist -18.4649
lhand -16.839 -361.158
lfingers 7.12502
lthumb 9.39067 28.6125
rfemur 41.1161 -62.885 -144.484
rtibia 153.506
rfoot -62.7085 48.4884
rtoes -9.78553
lfemur -16.0673 57.9172 74.767
ltibia 149.555
lfoot -43.7349 -30.9297
ltoes -34.7113
